<svg width="16.000000" height="16.000000" viewBox="0 0 16 16" fill="none" xmlns="http://www.w3.org/2000/svg" xmlns:xlink="http://www.w3.org/1999/xlink">
	<desc>
			Created with Pixso.
	</desc>
	<defs>
		<clipPath id="clip2492_17665">
			<rect id="check" width="16.000000" height="16.000000" fill="white" fill-opacity="0"/>
		</clipPath>
	</defs>
	<g clip-path="url(#clip2492_17665)">
		<path id="Vector" d="M15.3335 8C15.3335 12.0439 12.0435 15.334 8 15.334C3.95679 15.334 0.666748 12.0439 0.666748 8C0.666748 3.95703 3.95679 0.666992 8 0.666992C9.46924 0.666992 10.8835 1.09766 12.0906 1.91113C12.3706 2.09961 12.4441 2.47949 12.2554 2.75977C12.0671 3.03906 11.687 3.11328 11.4072 2.9248C10.4028 2.24707 9.22461 1.88965 8 1.88965C4.63037 1.88965 1.88892 4.63086 1.88892 8C1.88892 11.3701 4.63037 14.1113 8 14.1113C11.3696 14.1113 14.1111 11.3701 14.1111 8C14.1111 7.41895 14.0298 6.84668 13.8701 6.29883C13.7754 5.97559 13.9607 5.63574 14.2849 5.54102C14.6099 5.44629 14.948 5.63184 15.043 5.95605C15.2361 6.61426 15.3335 7.30273 15.3335 8ZM8 8.39062L14.8618 1.5293C15.1223 1.26855 15.5442 1.26855 15.8047 1.5293C16.0649 1.78906 16.0649 2.21094 15.8047 2.47168L8.47119 9.80469C8.34082 9.93555 8.17065 10 8 10C7.8291 10 7.65894 9.93555 7.52856 9.80469L4.86182 7.13867C4.60156 6.87793 4.60156 6.45605 4.86182 6.19531C5.12231 5.93555 5.54419 5.93555 5.80469 6.19531L8 8.39062Z" fill="#FF3F3A" fill-opacity="1.000000" fill-rule="evenodd"/>
	</g>
</svg>
